<svg xmlns="http://www.w3.org/2000/svg" width="193" height="215"><path d="M129 9.344l-32.53.312v5.474L92.13 10H36.406L13.688 32.688v45.437L26.562 91H13.688v52.406c.227-.228 45.092 0 45.092 0v24.407H46.53v32.062h54.94v-32.063H91.312V147.97l21.75 24.03 21.906-26.094V167.5h-10.814v32.844h54.78V167.97H167.5v-58.94h11.594V66.347h-46.406l-8.654 13.136-18.22-19.263H129V9.343zm-28.5 4.03h25v43H93.625l-9.75-11.124h-29.5v15.154h46.186l23.477 24.348v3.342l10.84-16.763h40.25v33.798H164.5v66.688h11v24.625h-47.375v-24.594h11.03V135.44l-26.25 31.405-24.343-27.22h-1.28v31.72h9.343v24.97H50.72v-24.47h11.686v-32.12l-6.187-.1h-38.5v-44.28H44.43l7.406 7.875V91H30.59L18.06 76.187V32.75l18.97-18.97h52.913l10.554 13.023V13.376zm4.875 4.75l-.25 20.813-16.93-20.406H38.53l-16.467 17.6.125 38.44L32.47 86.5h19.374V72.406l34.625-.094L96.59 81l.125 25.656-5 5.28-36.876-.217-11.41-11.75H22.09V135h22.44l.032-11.5L56.22 135h45.155l18.375-21.5V84.875L99.437 64.562h-50.06V40.876h35.75L94.874 52l25.625.25-.13-34-15-.125zM57.97 49.594h23.686l6.28 6.28-29.967.19v-6.47zm79.28 24.767L124.034 94.76v19.62l-21.41 25.5h-7.562l17.844 20.47 30-36.532.25 52.28H132.25v16.22h38.5V175.69h-11v-75.064h11V74.36zM56.625 76.38v30.5H89.5l2-2.22V83.25l-6.875-6.875zM147.75 80h4.875v10.375h11.625V95.5h-11.625v26.375h-5v-26.25h-11.25v-5.25h11.375zm-80.72 60.47v35.5H54.72v16.093h38.53v-15.97h-9.97V140.5z" fill="#7a7a7a"/></svg>