<svg xmlns="http://www.w3.org/2000/svg" width="193" height="215"><path d="M129 9.344l-32.53.312v10.156L86.655 10h-50.25L13.688 32.688v45.437L26.562 91H13.688v52.406H53.72l5.06 5.094v19.313H46.53v32.062h54.94v-32.063H91.312V147.97l21.75 24.03 21.906-26.094V167.5h-10.814v32.844h54.78V167.97H167.5v-58.94h11.594V67.313h-46.406L124.563 79l-18.75-18.78H129V9.343zm-28.5 4.03h25v43H93.625l-9.75-11.124h-29.5v14.188h47.313L124.5 82.25V86l10.375-15.125h40.25v34.25H164.5v66.688h11v24.625h-47.375v-24.594h11.03v-36.406l-26.25 31.406-24.343-27.22h-1.28v31.72h9.343v24.97H50.72v-24.47h11.686v-26l-6.187-6.22h-38.5v-44.28h26.716l7.406 7.875V91h-21.25l-12.53-14.813V32.75l18.97-18.97h47.436l16.03 16V13.376zm4.875 4.75l-.25 22.407-22.406-22H38.53L22.063 36.128l.125 38.438L32.47 86.5h19.374V72.406l34.625-.094L96.59 81l.125 25.656-5 5.28-36.876-.217-11.406-11.75h-21.34V135H44.53l.032-11.5L56.22 135h45.155l18.375-21.5V84.875L99.437 64.562h-50.06V40.876h35.75L94.874 52l25.625.25-.126-34-15-.125zM57.97 49.594h23.686l6.28 6.28-29.967.19v-6.47zM137.25 75.5l-12.125 16.75-.125 22.125-22.375 25.5h-7.563l17.844 20.47 30-36.532.25 52.28H132.25v16.22h38.5v-16.625h-11v-75.063h11V75.5h-33.5zm-80.625.875v30.5H89.5l2-2.22V83.25l-6.875-6.875h-28zM147.75 80h4.875v10.375h11.625V95.5h-11.625v26.375h-5v-26.25h-11.25v-5.25h11.375V80zm-80.72 60.47v35.5H54.72v16.093h38.53v-15.97h-9.97V140.5l-16.25-.03z" fill="#7a7a7a"/></svg>